#!OML:ASF X:\für Bonn\!DataBase\2005_08_10_Bjorn_Final\c3d\bjorn.ASF
:FULLY-SPECIFIED
:DEGREES
260
root -0.870007 22.3224 6.88037 -539.751 36.7033 -534.433
lowerback -3.72239 5.94155 6.48709
upperback 1.93962 7.68509 -1.85759
thorax 5.22319 4.06819 -4.84671
lowerneck -5.21852 3.29182 11.3175
upperneck 13.1375 4.4006 -5.61567
head 5.17929 2.49502 -3.32257
rclavicle 3.4837e-014 -1.90833e-014
rhumerus 87.0429 18.0329 -85.7374
rradius 25.0207
rwrist 35.2795
rhand -34.0426 18.9424
rfingers 7.12502
rthumb -7.2207 -10.9144
lclavicle 3.4837e-014 -1.90833e-014
lhumerus 54.711 -16.3592 91.1924
lradius 61.2267
lwrist 54.3434
lhand -54.4652 -2.23294
lfingers 7.12502
lthumb -26.8685 25.8777
rfemur 365.042 -2.24683 -348.626
rtibia 35.5335
rfoot 13.2153 11.1467
rtoes -27.0405
lfemur -13.7568 6.21714 -7.54501
ltibia 38.6247
lfoot 15.7781 -1.55339
ltoes -28.7192
261
root -0.8788 22.2853 6.78749 -539.689 36.4958 -534.443
lowerback -3.56509 5.93437 6.48485
upperback 1.88688 7.68886 -1.91003
thorax 5.08617 4.06683 -4.9197
lowerneck -4.85125 3.16529 11.3013
upperneck 13.0182 4.27453 -5.58626
head 5.06772 2.44144 -3.32435
rclavicle -7.32273e-014 -1.51076e-014
rhumerus 87.0327 17.8725 -85.7369
rradius 25.2018
rwrist 35.9172
rhand -34.3332 18.846
rfingers 7.12502
rthumb -7.5012 -11.001
lclavicle -7.32273e-014 -1.51076e-014
lhumerus 54.7048 -16.6956 90.3891
lradius 61.4127
lwrist 54.335
lhand -54.2983 -2.39849
lfingers 7.12502
lthumb -26.7088 25.7367
rfemur 365.038 -2.38538 -348.668
rtibia 35.3425
rfoot 12.5037 11.0417
rtoes -27.1174
lfemur -14.1879 5.97888 -7.64434
ltibia 38.5332
lfoot 14.8552 -1.92457
ltoes -29.2873
262
root -0.888106 22.2339 6.69391 -539.532 36.2987 -534.41
lowerback -3.50474 5.93952 6.53482
upperback 1.84342 7.69983 -1.96292
thorax 5.0224 4.07241 -5.00989
lowerneck -4.51434 3.05592 11.3176
upperneck 12.8668 4.16464 -5.58437
head 4.95436 2.39312 -3.33822
rclavicle 1.08164e-013 -3.97569e-015
rhumerus 86.9895 17.7086 -85.8014
rradius 25.4598
rwrist 36.9014
rhand -34.7737 18.5187
rfingers 7.12502
rthumb -7.92639 -11.3127
lclavicle 1.08164e-013 -3.97569e-015
lhumerus 54.7163 -17.0074 89.6383
lradius 61.6841
lwrist 54.3162
lhand -54.3131 -2.11219
lfingers 7.12502
lthumb -26.7229 26.0208
rfemur 364.952 -2.56856 -348.698
rtibia 35.1502
rfoot 11.8196 10.995
rtoes -26.7152
lfemur -14.7038 5.6656 -7.70613
ltibia 38.3863
lfoot 13.6857 -1.94342
ltoes -29.2559
263
root -0.897275 22.1727 6.59913 -539.353 36.1167 -534.417
lowerback -3.51235 5.94118 6.54985
upperback 1.79708 7.70358 -2.0207
thorax 4.98889 4.07377 -5.07991
lowerneck -4.12733 2.95617 11.3998
upperneck 12.7053 4.07951 -5.66319
head 4.83447 2.35635 -3.38705
rclavicle -9.47333e-014 7.15625e-015
rhumerus 86.858 17.6274 -86.1919
rradius 25.7693
rwrist 38.2227
rhand -35.3152 18.1563
rfingers 7.12502
rthumb -8.44892 -11.6547
lclavicle -9.47333e-014 7.15625e-015
lhumerus 54.7391 -17.2421 89.0519
lradius 61.9854
lwrist 54.3058
lhand -54.4529 -1.61363
lfingers 7.12502
lthumb -26.8567 26.4989
rfemur 364.817 -2.77212 -348.779
rtibia 34.9503
rfoot 11.1338 11.0187
rtoes -26.4927
lfemur -15.2566 5.27918 -7.79731
ltibia 38.1917
lfoot 12.4613 -1.64487
ltoes -28.5386
264
root -0.905999 22.103 6.50385 -539.158 35.9163 -534.423
lowerback -3.54541 5.95643 6.56293
upperback 1.76062 7.72427 -2.08149
thorax 4.98286 4.08458 -5.14669
lowerneck -3.81602 2.85665 11.4691
upperneck 12.565 3.98057 -5.69594
head 4.73188 2.31344 -3.41874
rclavicle 3.00413e-014 -8.74653e-015
rhumerus 86.7905 17.5044 -86.2497
rradius 26.1492
rwrist 38.5995
rhand -35.7091 18.1848
rfingers 7.12502
rthumb -8.8291 -11.6105
lclavicle 3.00413e-014 -8.74653e-015
lhumerus 54.8137 -17.4713 88.5916
lradius 62.27
lwrist 54.4075
lhand -54.5241 -1.30885
lfingers 7.12502
lthumb -26.9249 26.7932
rfemur 364.685 -2.93567 -348.845
rtibia 34.7293
rfoot 10.4076 11.0268
rtoes -26.1073
lfemur -15.8399 4.90159 -7.87354
ltibia 37.972
lfoot 11.2357 -1.18732
ltoes -27.1826
265
root -0.914825 22.0244 6.40752 -538.949 35.7447 -534.408
lowerback -3.58997 5.96789 6.56783
upperback 1.7226 7.73722 -2.10481
thorax 4.97396 4.08994 -5.16975
lowerneck -3.50005 2.76511 11.554
upperneck 12.4587 3.90444 -5.80306
head 4.64225 2.27991 -3.47491
rclavicle 4.57702e-014 -2.22639e-014
rhumerus 86.7642 17.4265 -86.1285
rradius 26.6144
rwrist 38.589
rhand -36.0065 18.1885
rfingers 7.12502
rthumb -9.11609 -11.5945
lclavicle 4.57702e-014 -2.22639e-014
lhumerus 54.8758 -17.6052 88.2853
lradius 62.5336
lwrist 54.5715
lhand -54.5073 -1.16013
lfingers 7.12502
lthumb -26.9089 26.9443
rfemur 364.563 -3.03923 -348.891
rtibia 34.4778
rfoot 9.61549 11.0353
rtoes -26.0468
lfemur -16.4146 4.52807 -7.91962
ltibia 37.7398
lfoot 10.022 -0.569364
ltoes -25.2637
266
root -0.922366 21.9343 6.31123 -538.851 35.5818 -534.393
lowerback -3.51962 5.96401 6.57029
upperback 1.72501 7.73735 -2.11591
thorax 4.93868 4.08989 -5.19002
lowerneck -3.21554 2.69008 11.6229
upperneck 12.3525 3.84532 -5.89508
head 4.55894 2.25385 -3.52206
rclavicle 3.47128e-014 4.92986e-014
rhumerus 86.7969 17.3524 -85.8254
rradius 27.176
rwrist 38.0951
rhand -36.1487 18.2732
rfingers 7.12502
rthumb -9.25331 -11.5038
lclavicle 3.47128e-014 4.92986e-014
lhumerus 55.0051 -17.6795 87.9935
lradius 62.7609
lwrist 54.6976
lhand -54.5516 -0.96176
lfingers 7.12502
lthumb -26.9512 27.1362
rfemur 364.591 -3.12932 -348.956
rtibia 34.1891
rfoot 8.78086 11.0911
rtoes -25.8478
lfemur -16.8836 4.23052 -7.95728
ltibia 37.5122
lfoot 8.88252 0.00539181
ltoes -24.1214
267
root -0.931021 21.8332 6.21414 -538.931 35.4348 -534.391
lowerback -3.27956 5.94681 6.56994
upperback 1.78327 7.72958 -2.0849
thorax 4.85857 4.08629 -5.18047
lowerneck -2.91679 2.61723 11.6613
upperneck 12.228 3.79525 -6.01556
head 4.46814 2.22906 -3.5727
rclavicle -1.80397e-014 -9.54166e-015
rhumerus 86.8817 17.2925 -85.2506
rradius 27.8445
rwrist 37.083
rhand -36.161 18.4791
rfingers 7.12502
rthumb -9.26513 -11.2974
lclavicle -1.80397e-014 -9.54166e-015
lhumerus 55.1638 -17.7108 87.7875
lradius 62.962
lwrist 54.8589
lhand -54.6539 -0.871738
lfingers 7.12502
lthumb -27.049 27.211
rfemur 364.814 -3.13559 -349.06
rtibia 33.8725
rfoot 7.93196 11.1356
rtoes -25.3144
lfemur -17.1553 3.7853 -8.00359
ltibia 37.2888
lfoot 7.77117 0.682557
ltoes -23.735
268
root -0.938646 21.7211 6.11747 -539.132 35.2951 -534.485
lowerback -2.94854 5.92337 6.4891
upperback 1.84845 7.72436 -2.06422
thorax 4.72484 4.08116 -5.14677
lowerneck -2.62066 2.54353 11.6596
upperneck 12.1187 3.74475 -6.11
head 4.38119 2.20448 -3.60844
rclavicle -8.94779e-014 6.52014e-014
rhumerus 86.9147 17.2235 -84.7014
rradius 28.6428
rwrist 35.9857
rhand -36.0736 18.675
rfingers 7.12502
rthumb -9.18082 -11.1051
lclavicle -8.94779e-014 6.52014e-014
lhumerus 55.2027 -17.7381 87.6012
lradius 63.2595
lwrist 54.8426
lhand -54.5873 -1.16925
lfingers 7.12502
lthumb -26.9853 26.9234
rfemur 365.117 -3.14439 -349.285
rtibia 33.5278
rfoot 7.07347 11.2143
rtoes -24.3637
lfemur -17.3411 3.26822 -8.12842
ltibia 37.0931
lfoot 6.69322 1.41065
ltoes -22.819
269
root -0.944979 21.6025 6.02001 -539.324 35.1779 -534.738
lowerback -2.72745 5.91548 6.26968
upperback 1.894 7.74085 -2.09243
thorax 4.62342 4.08384 -5.07537
lowerneck -2.35286 2.46892 11.7065
upperneck 12.0231 3.68963 -6.233
head 4.30419 2.17823 -3.66085
rclavicle -1.13183e-013 2.06736e-014
rhumerus 86.9196 17.1388 -84.2034
rradius 29.5364
rwrist 34.9278
rhand -35.9119 18.8058
rfingers 7.12502
rthumb -9.02477 -10.9812
lclavicle -1.13183e-013 2.06736e-014
lhumerus 55.1019 -17.7782 87.4189
lradius 63.7181
lwrist 54.69
lhand -54.3623 -1.77844
lfingers 7.12502
lthumb -26.7701 26.3474
rfemur 365.3 -3.21168 -349.704
rtibia 33.1837
rfoot 6.22442 11.406
rtoes -23.1304
lfemur -17.631 2.9119 -8.41676
ltibia 36.919
lfoot 5.81314 1.85096
ltoes -22.15
270
root -0.951478 21.4762 5.92228 -539.392 35.052 -534.986
lowerback -2.63189 5.91824 6.04974
upperback 1.91406 7.76269 -2.12762
thorax 4.56777 4.08909 -4.99859
lowerneck -2.12252 2.3987 11.7637
upperneck 11.9562 3.6366 -6.35585
head 4.24257 2.15371 -3.71424
rclavicle -4.52981e-014 -1.19271e-014
rhumerus 86.9121 17.0176 -83.6742
rradius 30.4062
rwrist 34.3193
rhand -36.0193 18.6021
rfingers 7.12502
rthumb -9.12839 -11.1803
lclavicle -4.52981e-014 -1.19271e-014
lhumerus 54.9883 -17.8214 87.2496
lradius 64.2325
lwrist 54.587
lhand -54.147 -2.49109
lfingers 7.12502
lthumb -26.564 25.6661
rfemur 365.355 -3.25062 -350.097
rtibia 32.8464
rfoot 5.35602 11.5832
rtoes -21.4871
lfemur -18.0631 2.68619 -8.7182
ltibia 36.7895
lfoot 5.08454 2.04192
ltoes -22.3671
271
root -0.958784 21.3383 5.82505 -539.325 34.9292 -535.13
lowerback -2.60485 5.93476 5.92958
upperback 1.91444 7.79274 -2.14651
thorax 4.5429 4.10058 -4.95241
lowerneck -1.89607 2.3224 11.7941
upperneck 11.8722 3.57393 -6.47305
head 4.17486 2.12286 -3.76176
rclavicle -1.05157e-013 4.21423e-014
rhumerus 86.8667 16.9128 -83.2754
rradius 31.2702
rwrist 33.8928
rhand -36.072 18.4379
rfingers 7.12502
rthumb -9.17931 -11.3423
lclavicle -1.05157e-013 4.21423e-014
lhumerus 54.9877 -17.8571 87.0513
lradius 64.6164
lwrist 54.5083
lhand -53.9129 -3.23082
lfingers 7.12502
lthumb -26.34 24.96
rfemur 365.322 -3.09872 -350.336
rtibia 32.5031
rfoot 4.4096 11.6414
rtoes -19.4774
lfemur -18.5765 2.59037 -8.94175
ltibia 36.7184
lfoot 4.43358 2.04459
ltoes -23.6823
